/* XPM */
static char * pab0_xpm[] = {
"64 64 9 1",
" 	c None",
".	c #000000",
"+	c #573A23",
"@	c #402717",
"#	c #AC7B5D",
"$	c #A4A8B5",
"%	c #DBD2C7",
"&	c #1D438A",
"*	c #2C65B5",
"                                                                ",
"                                                                ",
"                                                                ",
"                                                                ",
"                                                                ",
"                                                                ",
"                                                                ",
"                                                                ",
"                                                                ",
"                                                                ",
"                                                                ",
"                                                                ",
"                                                                ",
"                                                                ",
"                                                                ",
"                              ....  ........                    ",
"                              ....  ........                    ",
"                          ......++..@@++++..                    ",
"                          ......++..@@++++..                    ",
"                        ..@@++++++@@++++....                    ",
"                        ..@@++++++@@++++....                    ",
"                        ..++++++++++++++++@@..                  ",
"                        ..++++++++++++++++@@..                  ",
"                      ..@@++++++++++++++++++@@..                ",
"                      ..@@++++++++++++++++++@@..                ",
"                      ..@@++++++++++++++++++@@..                ",
"                      ..@@++++++++++++++++++@@..                ",
"                      ..@@++++++++++++++++++@@..                ",
"                      ..@@++++++++++++++++++@@..                ",
"                      ..@@@@++++++++++++++@@@@..                ",
"                      ..@@@@++++++++++++++@@@@..                ",
"                        ..@@@@@@++++++@@@@@@@@..                ",
"                        ..@@@@@@++++++@@@@@@@@..                ",
"                        ..@@@@@@@@@@@@@@@@@@..                  ",
"                        ..@@@@@@@@@@@@@@@@@@..                  ",
"                        ..##@@@@@@@@@@@@@@##....                ",
"                        ..##@@@@@@@@@@@@@@##....                ",
"                          ..####@@@@@@######..@@..              ",
"                          ..####@@@@@@######..@@..              ",
"                          ..++##########++..@@@@..              ",
"                          ..++##########++..@@@@..              ",
"                        ..++++++++++++++++@@@@@@..              ",
"                        ..++++++++++++++++@@@@@@..              ",
"                        ..++++++++++++++@@@@@@$$%%..            ",
"                        ..++++++++++++++@@@@@@$$%%..            ",
"                        ..&&****&&****&&..@@..$$%%%%..          ",
"                        ..&&****&&****&&..@@..$$%%%%..          ",
"                        ..&&&&&&..++++++......  %%%%..          ",
"                        ..&&&&&&..++++++......  %%%%..          ",
"                        ..@@@@....++++++..    ..$$%%..          ",
"                        ..@@@@....++++++..    ..$$%%..          ",
"                                                ......          ",
"                                                ......          ",
"                                                                ",
"                                                                ",
"                                                                ",
"                                                                ",
"                                                                ",
"                                                                ",
"                                                                ",
"                                                                ",
"                                                                ",
"                                                                ",
"                                                                "};
