/* XPM */
static char * pab1_xpm[] = {
"64 64 11 1",
" 	c None",
".	c #FFFFFF",
"+	c #000000",
"@	c #573A23",
"#	c #402717",
"$	c #AC7B5D",
"%	c #DBD2C7",
"&	c #C1AC8F",
"*	c #A4A8B5",
"=	c #2C65B5",
"-	c #1D438A",
"                                                                ",
"                                                                ",
"                                                                ",
"                                                                ",
"                                                                ",
"                                                                ",
"                                                                ",
"                                                                ",
"                                                                ",
"                                                                ",
"                                                                ",
"                                                                ",
"                        ....++++..++++++++                      ",
"                        ....++++..++++++++                      ",
"                    ....++++++@@++##@@@@++..                    ",
"                    ....++++++@@++##@@@@++..                    ",
"                  ....++##@@@@@@##@@@@++++....                  ",
"                  ....++##@@@@@@##@@@@++++....                  ",
"                ......++@@@@@@@@@@@@@@@@##++....                ",
"                ......++@@@@@@@@@@@@@@@@##++....                ",
"              ......++##@@@@@@@@@@@@@@@@@@##++..                ",
"              ......++##@@@@@@@@@@@@@@@@@@##++..                ",
"              ......++##@@@@@@@@@@@@@@@@@@##++....              ",
"              ......++##@@@@@@@@@@@@@@@@@@##++....              ",
"            ......  ++##@@@@@@@@@@@@@@@@@@##++....              ",
"            ......  ++##@@@@@@@@@@@@@@@@@@##++....              ",
"            ....    ++####@@@@@@@@@@@@@@####++....              ",
"            ....    ++####@@@@@@@@@@@@@@####++....              ",
"            ..        ++######@@@@@@########++....              ",
"            ..        ++######@@@@@@########++....              ",
"                      ++##################++    ..              ",
"                      ++##################++    ..              ",
"                      ++$$##############$$++    ..              ",
"                      ++$$##############$$++    ..              ",
"                ++++    ++$$$$######$$$$++                      ",
"                ++++    ++$$$$######$$$$++                      ",
"      ++++++++++++##++++++@@$$$$$$$$$$@@++++                    ",
"      ++++++++++++##++++++@@$$$$$$$$$$@@++++                    ",
"      ++%%%%%%%%%%####&&&&@@@@@@@@@@@@@@$$$$++                  ",
"      ++%%%%%%%%%%####&&&&@@@@@@@@@@@@@@$$$$++                  ",
"      ++****%%%%%%####&&&&@@@@@@@@@@@@@@$$$$++                  ",
"      ++****%%%%%%####&&&&@@@@@@@@@@@@@@$$$$++                  ",
"        ++++++****%%##++##@@@@@@@@@@@@##++++                    ",
"        ++++++****%%##++##@@@@@@@@@@@@##++++                    ",
"              ++++++##++######==--======++                      ",
"              ++++++##++######==--======++                      ",
"                    ++++++------++@@@@@@++                      ",
"                    ++++++------++@@@@@@++                      ",
"                        ++####++++@@@@@@++                      ",
"                        ++####++++@@@@@@++                      ",
"                                                                ",
"                                                                ",
"                                                                ",
"                                                                ",
"                                                                ",
"                                                                ",
"                                                                ",
"                                                                ",
"                                                                ",
"                                                                ",
"                                                                ",
"                                                                ",
"                                                                ",
"                                                                "};
