/* XPM */
static char * pab2_xpm[] = {
"64 64 10 1",
" 	c None",
".	c #000000",
"+	c #573A23",
"@	c #402717",
"#	c #FFFFFF",
"$	c #AC7B5D",
"%	c #C1AC8F",
"&	c #DBD2C7",
"*	c #1D438A",
"=	c #A4A8B5",
"                                                                ",
"                                                                ",
"                                                                ",
"                                                                ",
"                                                                ",
"                                                                ",
"                                                                ",
"                                                                ",
"                                                                ",
"                                                                ",
"                                                                ",
"                                                                ",
"                                                                ",
"                                                                ",
"                            ....  ........                      ",
"                            ....  ........                      ",
"                        ......++..@@++++..                      ",
"                        ......++..@@++++..                      ",
"                      ..@@++++++@@++++....                      ",
"                      ..@@++++++@@++++....                      ",
"                      ..++++++++++++++++@@..                    ",
"                      ..++++++++++++++++@@..                    ",
"                    ..@@++++++++++++++++++@@..                  ",
"                    ..@@++++++++++++++++++@@..                  ",
"                    ..@@++++++++++++++++++@@..                  ",
"                    ..@@++++++++++++++++++@@..                  ",
"              ######..@@++++++++++++++++++@@..                  ",
"              ######..@@++++++++++++++++++@@..                  ",
"            ######  ..@@@@++++++++++++++@@@@..                  ",
"            ######  ..@@@@++++++++++++++@@@@..                  ",
"          ######      ..@@@@@@++++++@@@@@@@@..                  ",
"          ######      ..@@@@@@++++++@@@@@@@@..                  ",
"          ####        ..@@@@@@@@@@@@@@@@@@..                    ",
"          ####        ..@@@@@@@@@@@@@@@@@@..                    ",
"        ######        ..$$@@@@@@@@@@@@@@$$..                    ",
"        ######        ..$$@@@@@@@@@@@@@@$$..                    ",
"        ####            ..$$$$@@@@@@$$$$..                      ",
"        ####            ..$$$$@@@@@@$$$$..                      ",
"        ####          ..%%++$$$$$$$$$$++....                    ",
"        ####          ..%%++$$$$$$$$$$++....                    ",
"          ##      ....$$%%++++++++++++++$$$$..                  ",
"          ##      ....$$%%++++++++++++++$$$$..                  ",
"                ..@@@@$$$$++++++++++++++$$$$..                  ",
"                ..@@@@$$$$++++++++++++++$$$$..                  ",
"            ....&&&&@@@@..@@++++++@@@@**....                    ",
"            ....&&&&@@@@..@@++++++@@@@**....                    ",
"          ..&&&&&&====@@@@******..++++++..                      ",
"          ..&&&&&&====@@@@******..++++++..                      ",
"          ..&&======......@@@@....++++++..                      ",
"          ..&&======......@@@@....++++++..                      ",
"          ..........                                            ",
"          ..........                                            ",
"                                                                ",
"                                                                ",
"                                                                ",
"                                                                ",
"                                                                ",
"                                                                ",
"                                                                ",
"                                                                ",
"                                                                ",
"                                                                ",
"                                                                ",
"                                                                "};
