/* XPM */
static char * paf1_xpm[] = {
"64 64 13 1",
" 	c None",
".	c #000000",
"+	c #573A23",
"@	c #402717",
"#	c #AC7B5D",
"$	c #21110D",
"%	c #C1AC8F",
"&	c #787E97",
"*	c #DBD2C7",
"=	c #A4A8B5",
"-	c #FFFFFF",
";	c #2C65B5",
">	c #1D438A",
"                                                                ",
"                                                                ",
"                                                                ",
"                                                                ",
"                                                                ",
"                                                                ",
"                                                                ",
"                                                                ",
"                                                                ",
"                                                                ",
"                                                                ",
"                                                                ",
"                        ........  ....                          ",
"                        ........  ....                          ",
"                        ..++++@@..++......                      ",
"                        ..++++@@..++......                      ",
"                        ....++++@@++++++@@..                    ",
"                        ....++++@@++++++@@..                    ",
"                      ..@@++++++++++++++++..                    ",
"                      ..@@++++++++++++++++..                    ",
"                    ..@@++++++++@@++++++++@@..                  ",
"                    ..@@++++++++@@++++++++@@..                  ",
"                    ..++++++@@@@@@@@++++++++..                  ",
"                    ..++++++@@@@@@@@++++++++..                  ",
"                    ..++++++@@########@@++++..                  ",
"                    ..++++++@@########@@++++..                  ",
"                    ..++++@@############@@++..                  ",
"                    ..++++@@############@@++..                  ",
"                    ..@@++##$$%%%%%%$$##@@..                    ",
"                    ..@@++##$$%%%%%%$$##@@..                    ",
"                      ..++%%$$%%%%%%$$%%%%..                    ",
"                      ..++%%$$%%%%%%$$%%%%..                    ",
"                    ....##%%%%%%%%%%%%%%##..                    ",
"                    ....##%%%%%%%%%%%%%%##..                    ",
"                  ..%%%%..##%%%%%%%%%%##....                    ",
"                  ..%%%%..##%%%%%%%%%%##....                    ",
"                  ..%%%%..@@##########++@@........              ",
"                  ..%%%%..@@##########++@@........              ",
"                    ......@@++&&&&&&++++++@@******......        ",
"                    ......@@++&&&&&&++++++@@******......        ",
"                        ..++++&&====++++%%%%@@==******==..      ",
"                        ..++++&&====++++%%%%@@==******==..      ",
"                  --    ..++++;;;;;;++++%%%%@@========**..      ",
"                  --    ..++++;;;;;;++++%%%%@@========**..      ",
"                  --    ..;;;;;;>>;;;;>>....@@............      ",
"                  --    ..;;;;;;>>;;;;>>....@@............      ",
"                  --    ..++++;;..@@@@@@..  ....      --        ",
"                  --    ..++++;;..@@@@@@..  ....      --        ",
"                  ------..++++@@....@@@@..          ----        ",
"                  ------..++++@@....@@@@..          ----        ",
"                  ----------                      ------        ",
"                  ----------                      ------        ",
"                  --------------              --------          ",
"                  --------------              --------          ",
"                    ----------------------------------          ",
"                    ----------------------------------          ",
"                    --------------------------------            ",
"                    --------------------------------            ",
"                      ----------------------------              ",
"                      ----------------------------              ",
"                        ------------------------                ",
"                        ------------------------                ",
"                            ----------------                    ",
"                            ----------------                    "};
