/* XPM */
static char * pal2_xpm[] = {
"64 64 12 1",
" 	c None",
".	c #000000",
"+	c #573A23",
"@	c #402717",
"#	c #AC7B5D",
"$	c #C1AC8F",
"%	c #21110D",
"&	c #787E97",
"*	c #A4A8B5",
"=	c #FFFFFF",
"-	c #2C65B5",
";	c #1D438A",
"                                                                ",
"                                                                ",
"                                                                ",
"                                                                ",
"                                                                ",
"                                                                ",
"                                                                ",
"                                                                ",
"                                                                ",
"                                                                ",
"                                                                ",
"                                                                ",
"                              ....  ........                    ",
"                              ....  ........                    ",
"                          ......++..@@++++..                    ",
"                          ......++..@@++++..                    ",
"                        ..++++@@++@@++++....                    ",
"                        ..++++@@++@@++++....                    ",
"                        ..++++++++++++++++@@..                  ",
"                        ..++++++++++++++++@@..                  ",
"                      ..++++++++++++++++++++@@..                ",
"                      ..++++++++++++++++++++@@..                ",
"                      ..++++++@@++++++++@@++@@..                ",
"                      ..++++++@@++++++++@@++@@..                ",
"                    ..@@++@@##@@++++++++@@@@@@..                ",
"                    ..@@++@@##@@++++++++@@@@@@..                ",
"                    ..@@@@######@@++++++@@++@@..                ",
"                    ..@@@@######@@++++++@@++@@..                ",
"                    ..@@##$$$$####@@++@@##++@@..                ",
"                    ..@@##$$$$####@@++@@##++@@..                ",
"                      ..$$%%$$$$%%##@@####@@@@..                ",
"                      ..$$%%$$$$%%##@@####@@@@..                ",
"                      ..$$%%$$$$%%$$####@@@@..                  ",
"                      ..$$%%$$$$%%$$####@@@@..                  ",
"                      ..##$$$$$$$$##@@@@@@..                    ",
"                      ..##$$$$$$$$##@@@@@@..                    ",
"                        ..########@@++++@@..                    ",
"                        ..########@@++++@@..                    ",
"                      ..##@@&&&&&&++++++..                      ",
"                      ..##@@&&&&&&++++++..                      ",
"                      ..##@@******++++$$$$..            ==      ",
"                      ..##@@******++++$$$$..            ==      ",
"                      ..@@@@******@@++$$$$$$..        ====      ",
"                      ..@@@@******@@++$$$$$$..        ====      ",
"                      ..@@--------;;@@##$$$$..    ======        ",
"                      ..@@--------;;@@##$$$$..    ======        ",
"                        ..----;;----;;......  ========          ",
"                        ..----;;----;;......  ========          ",
"                        ..++@@....++@@..  ========              ",
"                        ..++@@....++@@..  ========              ",
"                                                                ",
"                                                                ",
"                                                                ",
"                                                                ",
"                                                                ",
"                                                                ",
"                                                                ",
"                                                                ",
"                                                                ",
"                                                                ",
"                                                                ",
"                                                                ",
"                                                                ",
"                                                                "};
