/* XPM */
static char * par0_xpm[] = {
"64 64 11 1",
" 	c None",
".	c #000000",
"+	c #573A23",
"@	c #402717",
"#	c #AC7B5D",
"$	c #21110D",
"%	c #C1AC8F",
"&	c #A4A8B5",
"*	c #2C65B5",
"=	c #1D438A",
"-	c #0D205E",
"                                                                ",
"                                                                ",
"                                                                ",
"                                                                ",
"                                                                ",
"                                                                ",
"                                                                ",
"                                                                ",
"                                                                ",
"                                                                ",
"                                                                ",
"                                                                ",
"                                                                ",
"                                                                ",
"                            ........  ....                      ",
"                            ........  ....                      ",
"                            ..++++@@..++......                  ",
"                            ..++++@@..++......                  ",
"                            ....++++@@++@@++++..                ",
"                            ....++++@@++@@++++..                ",
"                          ..@@++++++++++++++++++..              ",
"                          ..@@++++++++++++++++++..              ",
"                        ..@@++++++++++++++++++++++..            ",
"                        ..@@++++++++++++++++++++++..            ",
"                        ..@@++++@@++++++@@@@++++++..            ",
"                        ..@@++++@@++++++@@@@++++++..            ",
"                        ..@@@@@@@@++++++@@####@@++@@..          ",
"                        ..@@@@@@@@++++++@@####@@++@@..          ",
"                        ..@@++@@@@++++@@########@@@@..          ",
"                        ..@@++@@@@++++@@########@@@@..          ",
"                        ..@@++++##@@++##$$%%%%$$..@@..          ",
"                        ..@@++++##@@++##$$%%%%$$..@@..          ",
"                        ..@@@@++####@@%%$$%%%%$$....            ",
"                        ..@@@@++####@@%%$$%%%%$$....            ",
"                          ..@@@@######%%%%%%%%##..              ",
"                          ..@@@@######%%%%%%%%##..              ",
"                            ..@@@@@@@@########&&..              ",
"                            ..@@@@@@@@########&&..              ",
"                              ..++++++++++@@&&&&..              ",
"                              ..++++++++++@@&&&&..              ",
"                            ..++++@@++++%%%%%%&&..              ",
"                            ..++++@@++++%%%%%%&&..              ",
"                          ..++++@@@@@@%%@@@@%%..                ",
"                          ..++++@@@@@@%%@@@@%%..                ",
"                          ..@@@@@@****====....                  ",
"                          ..@@@@@@****====....                  ",
"                          ..++++****==--++++..                  ",
"                          ..++++****==--++++..                  ",
"                          ..++++@@......@@++..                  ",
"                          ..++++@@......@@++..                  ",
"                                                                ",
"                                                                ",
"                                                                ",
"                                                                ",
"                                                                ",
"                                                                ",
"                                                                ",
"                                                                ",
"                                                                ",
"                                                                ",
"                                                                ",
"                                                                ",
"                                                                ",
"                                                                "};
