/* XPM */
static char * sd0_xpm[] = {
"64 64 6 1",
" 	c None",
".	c #1D235D",
"+	c #425B9E",
"@	c #4D8AB3",
"#	c #65B1B8",
"$	c #000000",
"                                                                ",
"                                                                ",
"                                                                ",
"                                                                ",
"                                                                ",
"                                                                ",
"                                                                ",
"                                                                ",
"                                                                ",
"                                                                ",
"                                                                ",
"                                                                ",
"                                                                ",
"                                                                ",
"                                                                ",
"                                                                ",
"                                                                ",
"                                                                ",
"                                                                ",
"                                                                ",
"                      ..............                            ",
"                      ..............                            ",
"                    ..++@@@@@@@@@@@@..                          ",
"                    ..++@@@@@@@@@@@@..                          ",
"                  ..++@@@@@@########@@..                        ",
"                  ..++@@@@@@########@@..                        ",
"                  ..@@@@@@############++..                      ",
"                  ..@@@@@@############++..                      ",
"                  ..@@@@@@####$$$$####$$..                      ",
"                  ..@@@@@@####$$$$####$$..                      ",
"                  ..@@@@######$$$$####$$@@..                    ",
"                  ..@@@@######$$$$####$$@@..                    ",
"                  ..@@@@################@@..                    ",
"                  ..@@@@################@@..                    ",
"                  ..++@@@@##############@@++..                  ",
"                  ..++@@@@##############@@++..                  ",
"                    ..++++@@############@@++..                  ",
"                    ..++++@@############@@++..                  ",
"                      ..++++@@@@@@@@@@@@++++..                  ",
"                      ..++++@@@@@@@@@@@@++++..                  ",
"                        ....++++++++++++++..                    ",
"                        ....++++++++++++++..                    ",
"                            ..............                      ",
"                            ..............                      ",
"                                                                ",
"                                                                ",
"                                                                ",
"                                                                ",
"                                                                ",
"                                                                ",
"                                                                ",
"                                                                ",
"                                                                ",
"                                                                ",
"                                                                ",
"                                                                ",
"                                                                ",
"                                                                ",
"                                                                ",
"                                                                ",
"                                                                ",
"                                                                ",
"                                                                ",
"                                                                "};
