/* XPM */
static char * sd2_xpm[] = {
"64 64 6 1",
" 	c None",
".	c #1D235D",
"+	c #4D8AB3",
"@	c #65B1B8",
"#	c #000000",
"$	c #425B9E",
"                                                                ",
"                                                                ",
"                                                                ",
"                                                                ",
"                                                                ",
"                                                                ",
"                    ..........                                  ",
"                    ..........                                  ",
"                  ..++++@@++++..                                ",
"                  ..++++@@++++..                                ",
"                ..++++@@@@@@++..                                ",
"                ..++++@@@@@@++..                                ",
"                ..++++@@##@@@@..                                ",
"                ..++++@@##@@@@..                                ",
"                ..++++@@@@@@@@..      ....                      ",
"                ..++++@@@@@@@@..      ....                      ",
"                  ..++++++++..      ..@@$$..                    ",
"                  ..++++++++..      ..@@$$..                    ",
"                    ........      ..@@##++..                    ",
"                    ........      ..@@##++..                    ",
"                                  ..@@++++..                    ",
"                                  ..@@++++..                    ",
"                                    ......                      ",
"                                    ......                      ",
"                                                                ",
"                                                                ",
"                                                                ",
"                                                                ",
"                      ......                                    ",
"                      ......                                    ",
"                    ..++++@@..                                  ",
"                    ..++++@@..                                  ",
"                    ..++@@++..                                  ",
"                    ..++@@++..                                  ",
"                    ..$$++++..                                  ",
"                    ..$$++++..                                  ",
"                      ......                                    ",
"                      ......                                    ",
"                                                                ",
"                                                                ",
"                                                                ",
"                                                                ",
"                                                                ",
"                                                                ",
"                                                                ",
"                                                                ",
"                                                                ",
"                                                                ",
"                                                                ",
"                                                                ",
"                                                                ",
"                                                                ",
"                                                                ",
"                                                                ",
"                                                                ",
"                                                                ",
"                                                                ",
"                                                                ",
"                                                                ",
"                                                                ",
"                                                                ",
"                                                                ",
"                                                                ",
"                                                                "};
