/* XPM */
static char * sd3_xpm[] = {
"64 64 4 1",
" 	c None",
".	c #1D235D",
"+	c #4D8AB3",
"@	c #65B1B8",
"                                                                ",
"                                                                ",
"                                                                ",
"                                                                ",
"                                                                ",
"                                                                ",
"                                                                ",
"                                                                ",
"                                                                ",
"                                                                ",
"                                                                ",
"                                                                ",
"                  ......                                        ",
"                  ......                                        ",
"                ..++@@++..                                      ",
"                ..++@@++..                                      ",
"                ..@@@@@@++..                                    ",
"                ..@@@@@@++..                                    ",
"                ..@@@@@@@@..                ......              ",
"                ..@@@@@@@@..                ......              ",
"                  ..@@@@..                ..@@++..              ",
"                  ..@@@@..                ..@@++..              ",
"                    ....                  ..++....              ",
"                    ....                  ..++....              ",
"                                          ......                ",
"                                          ......                ",
"                                                                ",
"                                                                ",
"                                                                ",
"                                                                ",
"                                                                ",
"                                                                ",
"                                                                ",
"                                                                ",
"                  ....                                          ",
"                  ....                                          ",
"                ..++@@..                                        ",
"                ..++@@..                                        ",
"                ..@@++..                                        ",
"                ..@@++..                                        ",
"                ......                                          ",
"                ......                                          ",
"                                                                ",
"                                                                ",
"                                                                ",
"                                                                ",
"                                                                ",
"                                                                ",
"                                                                ",
"                                                                ",
"                                                                ",
"                                                                ",
"                                                                ",
"                                                                ",
"                                                                ",
"                                                                ",
"                                                                ",
"                                                                ",
"                                                                ",
"                                                                ",
"                                                                ",
"                                                                ",
"                                                                ",
"                                                                "};
