/* XPM */
static char * sr1_xpm[] = {
"64 64 9 1",
" 	c None",
".	c #1D235D",
"+	c #4D8AB3",
"@	c #65B1B8",
"#	c #FFFFFF",
"$	c #000000",
"%	c #33418A",
"&	c #9E2E46",
"*	c #425B9E",
"                                                                ",
"                                                                ",
"                                                                ",
"                                                                ",
"                                                                ",
"                                                                ",
"                                                                ",
"                                                                ",
"                                                                ",
"                                                                ",
"                                                                ",
"                                                                ",
"                                                                ",
"                                                                ",
"                                                                ",
"                                                                ",
"                            ..........                          ",
"                            ..........                          ",
"                          ..++++++++++..                        ",
"                          ..++++++++++..                        ",
"                        ..++@@@@@@@@@@@@..                      ",
"                        ..++@@@@@@@@@@@@..                      ",
"                      ..++@@@@##$$@@@@$$..                      ",
"                      ..++@@@@##$$@@@@$$..                      ",
"                      ..++@@@@$$$$@@@@$$@@..                    ",
"                      ..++@@@@$$$$@@@@$$@@..                    ",
"                      ..@@@@@@@@@@@@@@@@@@..                    ",
"                      ..@@@@@@@@@@@@@@@@@@..                    ",
"                      ..@@@@@@@@@@@@@@@@@@..                    ",
"                      ..@@@@@@@@@@@@@@@@@@..                    ",
"                      ..@@%%%%@@@@@@@@@@%%..                    ",
"                      ..@@%%%%@@@@@@@@@@%%..                    ",
"                      ..@@@@%%%%%%%%%%%%@@..                    ",
"                      ..@@@@%%%%%%%%%%%%@@..                    ",
"                      ..++@@@@&&&&%%%%@@..                      ",
"                      ..++@@@@&&&&%%%%@@..                      ",
"                      ..**++++++++++++**..                      ",
"                      ..**++++++++++++**..                      ",
"                        ..************..                        ",
"                        ..************..                        ",
"                          ............                          ",
"                          ............                          ",
"                                                                ",
"                                                                ",
"                                                                ",
"                                                                ",
"                                                                ",
"                                                                ",
"                                                                ",
"                                                                ",
"                                                                ",
"                                                                ",
"                                                                ",
"                                                                ",
"                                                                ",
"                                                                ",
"                                                                ",
"                                                                ",
"                                                                ",
"                                                                ",
"                                                                ",
"                                                                ",
"                                                                ",
"                                                                "};
