/* XPM */
static char * pwb0_xpm[] = {
"64 64 8 1",
" 	c None",
".	c #000000",
"+	c #573A23",
"@	c #402717",
"#	c #AC7B5D",
"$	c #C1AC8F",
"%	c #2C65B5",
"&	c #1D438A",
"                                                                ",
"                                                                ",
"                                                                ",
"                                                                ",
"                                                                ",
"                                                                ",
"                                                                ",
"                                                                ",
"                                                                ",
"                                                                ",
"                            ....  ........                      ",
"                            ....  ........                      ",
"                        ......++..@@++++..                      ",
"                        ......++..@@++++..                      ",
"                      ..@@++++++@@++++....                      ",
"                      ..@@++++++@@++++....                      ",
"                      ..++++++++++++++++@@..                    ",
"                      ..++++++++++++++++@@..                    ",
"                    ..@@++++++++++++++++++@@..                  ",
"                    ..@@++++++++++++++++++@@..                  ",
"                    ..@@++++++++++++++++++@@..                  ",
"                    ..@@++++++++++++++++++@@..                  ",
"                    ..@@++++++++++++++++++@@..                  ",
"                    ..@@++++++++++++++++++@@..                  ",
"                    ..@@@@++++++++++++++@@@@..                  ",
"                    ..@@@@++++++++++++++@@@@..                  ",
"                      ..@@@@@@++++++@@@@@@@@..                  ",
"                      ..@@@@@@++++++@@@@@@@@..                  ",
"                      ..@@@@@@@@@@@@@@@@@@..                    ",
"                      ..@@@@@@@@@@@@@@@@@@..                    ",
"                      ..##@@@@@@@@@@@@@@##..                    ",
"                      ..##@@@@@@@@@@@@@@##..                    ",
"                        ..####@@@@@@####..                      ",
"                        ..####@@@@@@####..                      ",
"                        ..++##########++..                      ",
"                        ..++##########++..                      ",
"                        ..++++++++++++++....                    ",
"                        ..++++++++++++++....                    ",
"                        ..++++++++++++++$$$$..                  ",
"                        ..++++++++++++++$$$$..                  ",
"                        ..@@++++++++++@@$$$$..                  ",
"                        ..@@++++++++++@@$$$$..                  ",
"                        ..%%%%&&&&%%%%%%....                    ",
"                        ..%%%%&&&&%%%%%%....                    ",
"                        ..@@@@@@++++%%%%..                      ",
"                        ..@@@@@@++++%%%%..                      ",
"                          ......++++++&&..                      ",
"                          ......++++++&&..                      ",
"                              ..++++++....                      ",
"                              ..++++++....                      ",
"                                                                ",
"                                                                ",
"                                                                ",
"                                                                ",
"                                                                ",
"                                                                ",
"                                                                ",
"                                                                ",
"                                                                ",
"                                                                ",
"                                                                ",
"                                                                ",
"                                                                ",
"                                                                "};
