/* XPM */
static char * pwb4_xpm[] = {
"64 64 7 1",
" 	c None",
".	c #000000",
"+	c #573A23",
"@	c #402717",
"#	c #AC7B5D",
"$	c #1D438A",
"%	c #2C65B5",
"                                                                ",
"                                                                ",
"                                                                ",
"                                                                ",
"                                                                ",
"                                                                ",
"                                                                ",
"                                                                ",
"                                                                ",
"                                                                ",
"                                                                ",
"                                                                ",
"                            ....  ........                      ",
"                            ....  ........                      ",
"                        ......++..@@++++..                      ",
"                        ......++..@@++++..                      ",
"                      ..@@++++++@@++++....                      ",
"                      ..@@++++++@@++++....                      ",
"                      ..++++++++++++++++@@..                    ",
"                      ..++++++++++++++++@@..                    ",
"                    ..@@++++++++++++++++++@@..                  ",
"                    ..@@++++++++++++++++++@@..                  ",
"                    ..@@++++++++++++++++++@@..                  ",
"                    ..@@++++++++++++++++++@@..                  ",
"                    ..@@++++++++++++++++++@@..                  ",
"                    ..@@++++++++++++++++++@@..                  ",
"                    ..@@@@++++++++++++++@@@@..                  ",
"                    ..@@@@++++++++++++++@@@@..                  ",
"                      ..@@@@@@++++++@@@@@@@@..                  ",
"                      ..@@@@@@++++++@@@@@@@@..                  ",
"                      ..@@@@@@@@@@@@@@@@@@..                    ",
"                      ..@@@@@@@@@@@@@@@@@@..                    ",
"                      ..##@@@@@@@@@@@@@@##..                    ",
"                      ..##@@@@@@@@@@@@@@##..                    ",
"                        ..####@@@@@@####..                      ",
"                        ..####@@@@@@####..                      ",
"                        ..++##########++..                      ",
"                        ..++##########++..                      ",
"                        ..++++++++++++++..                      ",
"                        ..++++++++++++++..                      ",
"                      ..##$$%%%%++++++@@..                      ",
"                      ..##$$%%%%++++++@@..                      ",
"                      ..##@@++++$$%%%%$$..                      ",
"                      ..##@@++++$$%%%%$$..                      ",
"                        ..++++++..$$$$$$..                      ",
"                        ..++++++..$$$$$$..                      ",
"                          ........$$$$$$..                      ",
"                          ........$$$$$$..                      ",
"                                ..@@@@..                        ",
"                                ..@@@@..                        ",
"                                                                ",
"                                                                ",
"                                                                ",
"                                                                ",
"                                                                ",
"                                                                ",
"                                                                ",
"                                                                ",
"                                                                ",
"                                                                ",
"                                                                ",
"                                                                ",
"                                                                ",
"                                                                "};
