/* XPM */
static char * pwf4_xpm[] = {
"64 64 10 1",
" 	c None",
".	c #000000",
"+	c #573A23",
"@	c #402717",
"#	c #AC7B5D",
"$	c #21110D",
"%	c #C1AC8F",
"&	c #787E97",
"*	c #A4A8B5",
"=	c #2C65B5",
"                                                                ",
"                                                                ",
"                                                                ",
"                                                                ",
"                                                                ",
"                                                                ",
"                                                                ",
"                                                                ",
"                                                                ",
"                                                                ",
"                         ........  ....                         ",
"                         ........  ....                         ",
"                         ..++++@@..++......                     ",
"                         ..++++@@..++......                     ",
"                         ....++++@@++++++@@..                   ",
"                         ....++++@@++++++@@..                   ",
"                       ..@@++++++++++++++++..                   ",
"                       ..@@++++++++++++++++..                   ",
"                     ..@@++++++++@@++++++++@@..                 ",
"                     ..@@++++++++@@++++++++@@..                 ",
"                     ..++++++@@@@@@@@++++++++..                 ",
"                     ..++++++@@@@@@@@++++++++..                 ",
"                     ..++++++@@########@@++++..                 ",
"                     ..++++++@@########@@++++..                 ",
"                     ..++++@@############@@++..                 ",
"                     ..++++@@############@@++..                 ",
"                     ..@@++##$$%%%%%%$$##@@..                   ",
"                     ..@@++##$$%%%%%%$$##@@..                   ",
"                       ..++%%$$%%%%%%$$%%##..                   ",
"                       ..++%%$$%%%%%%$$%%##..                   ",
"                       ..##%%%%%%%%%%%%%%##..                   ",
"                       ..##%%%%%%%%%%%%%%##..                   ",
"                       ..@@##%%%%%%%%%%##@@..                   ",
"                       ..@@##%%%%%%%%%%##@@..                   ",
"                         ..@@##########@@..                     ",
"                         ..@@##########@@..                     ",
"                         ..@@++&&&&&&++@@..                     ",
"                         ..@@++&&&&&&++@@..                     ",
"                       ....++++&&****++%%%%..                   ",
"                       ....++++&&****++%%%%..                   ",
"                       ....++++========%%%%..                   ",
"                       ....++++========%%%%..                   ",
"                         ..==========++++..                     ",
"                         ..==========++++..                     ",
"                         ..======..++++++..                     ",
"                         ..======..++++++..                     ",
"                       ..++++++@@........                       ",
"                       ..++++++@@........                       ",
"                       ..++++++..                               ",
"                       ..++++++..                               ",
"                                                                ",
"                                                                ",
"                                                                ",
"                                                                ",
"                                                                ",
"                                                                ",
"                                                                ",
"                                                                ",
"                                                                ",
"                                                                ",
"                                                                ",
"                                                                ",
"                                                                ",
"                                                                "};
