/* XPM */
static char * coin_xpm[] = {
"32 32 5 1",
" 	c None",
".	c #1B1B1B",
"+	c #FFF21B",
"@	c #F2741B",
"#	c #FBC41B",
"                                ",
"                                ",
"                                ",
"                                ",
"                                ",
"                                ",
"          ............          ",
"          ............          ",
"        ..++++++++++++..        ",
"        ..++++++++++++..        ",
"      ..@@##########++++..      ",
"      ..@@##########++++..      ",
"      ..@@####++++####++..      ",
"      ..@@####++++####++..      ",
"      ..@@##@@####++##++..      ",
"      ..@@##@@####++##++..      ",
"      ..@@##@@####++##++..      ",
"      ..@@##@@####++##++..      ",
"      ..@@####@@@@####++..      ",
"      ..@@####@@@@####++..      ",
"      ..@@@@##########++..      ",
"      ..@@@@##########++..      ",
"        ..@@@@@@@@@@@@..        ",
"        ..@@@@@@@@@@@@..        ",
"          ............          ",
"          ............          ",
"                                ",
"                                ",
"                                ",
"                                ",
"                                ",
"                                "};
