/* XPM */
static char *_52a80944b5c4310ddefcc248f870978JwKALEsRJaVjOPAj[] = {
/* columns rows colors chars-per-pixel */
"80 80 4 1 ",
"  c #656C17",
". c #72751B",
"X c #787B21",
"o c #7F8226",
/* pixels */
"................................................................................",
"................................................................................",
"................................................................................",
"................................................................................",
"................................................................................",
"................................................................................",
"................................................................................",
"........................................o.......................................",
"........................................XX......................................",
"....................................ooX. X......................................",
".....................................oXX  .ooX..................................",
"..................................Xo. XX. XXo...................................",
"...................................oXX X.XXX....................................",
"................................... XX.  XX ...............................o....",
".................................... X..   .........................Xoo...o.....",
"..................................... .XX............................oXX.oo.....",
".......................................o ............................ XX.XX.....",
"....................................... .............................. X X .....",
"....................................................................... . ......",
"................................................................................",
"................................................................................",
"................................................................................",
"................................................................................",
"................................................................................",
"................................................................................",
"................................................................................",
"................................................................................",
"................................................................................",
"................................................................................",
"................................................................................",
"................................................................................",
"................................................................................",
"................................................................................",
"................................................................................",
"................................................................................",
"................................................................................",
"................................................................................",
"................................................................................",
"................................................................................",
"................................................................................",
".........................................................o......................",
"....................................................ooX..XX.....................",
".....................................................oXX. X..o..................",
"..................................................... XXX .XX ..................",
"...........o........................................oX XX..XX ..................",
"......ooX..XX....................................... XX X..  ...................",
".......oXX. X..o..................................... X  .......................",
"....... XXX .XX ................................................................",
"......oX XX..XX ................................................................",
"...... XX X..  .................................................................",
"....... X  .....................................................................",
"................................................................................",
"................................................................................",
"................................................................................",
"................................................................................",
"................................................................................",
"................................................................................",
".....................................oo.........................................",
"......................................oXX...oo..................................",
"...................................... XX..Xo...................................",
".......................................  .XXX...................................",
"..........................................XX ...................................",
"..........................................  ....................................",
"................................................................................",
"................................................................................",
"................................................................................",
"................................................................................",
".............................................Xo.................................",
"..............................................oo................................",
"..............................................XXX...............................",
".............................................. XX XXoo..........................",
"...............................................  XXX............................",
".................................................XX ............................",
"...................Xo....XX......................X .............................",
"....................oo..XX......................................................",
".................... XX.XX......................................................",
".................... XX.  ......................................................",
".....................  .........................................................",
".............................................................................o..",
"................................................................................"
};
