/* XPM */
static char * pb5_xpm[] = {
"80 80 8 1",
" 	c None",
".	c #000000",
"+	c #000000",
"@	c #573A23",
"#	c #402717",
"$	c #AC7B5D",
"%	c #1D438A",
"&	c #2C65B5",
"                                                                                ",
"                                                                                ",
"                                                                                ",
"                                                                                ",
"                              ++++++++    ++++++++++++++++                      ",
"                              ++++++++    ++++++++++++++++                      ",
"                              ++++++++    ++++++++++++++++                      ",
"                              ++++++++    ++++++++++++++++                      ",
"                      ++++++++++++@@@@++++####@@@@@@@@++++                      ",
"                      ++++++++++++@@@@++++####@@@@@@@@++++                      ",
"                      ++++++++++++@@@@++++####@@@@@@@@++++                      ",
"                      ++++++++++++@@@@++++####@@@@@@@@++++                      ",
"                  ++++####@@@@@@@@@@@@####@@@@@@@@++++++++                      ",
"                  ++++####@@@@@@@@@@@@####@@@@@@@@++++++++                      ",
"                  ++++####@@@@@@@@@@@@####@@@@@@@@++++++++                      ",
"                  ++++####@@@@@@@@@@@@####@@@@@@@@++++++++                      ",
"                  ++++@@@@@@@@@@@@@@@@@@@@@@@@@@@@@@@@####++++                  ",
"                  ++++@@@@@@@@@@@@@@@@@@@@@@@@@@@@@@@@####++++                  ",
"                  ++++@@@@@@@@@@@@@@@@@@@@@@@@@@@@@@@@####++++                  ",
"                  ++++@@@@@@@@@@@@@@@@@@@@@@@@@@@@@@@@####++++                  ",
"              ++++####@@@@@@@@@@@@@@@@@@@@@@@@@@@@@@@@@@@@####++++              ",
"              ++++####@@@@@@@@@@@@@@@@@@@@@@@@@@@@@@@@@@@@####++++              ",
"              ++++####@@@@@@@@@@@@@@@@@@@@@@@@@@@@@@@@@@@@####++++              ",
"              ++++####@@@@@@@@@@@@@@@@@@@@@@@@@@@@@@@@@@@@####++++              ",
"              ++++####@@@@@@@@@@@@@@@@@@@@@@@@@@@@@@@@@@@@####++++              ",
"              ++++####@@@@@@@@@@@@@@@@@@@@@@@@@@@@@@@@@@@@####++++              ",
"              ++++####@@@@@@@@@@@@@@@@@@@@@@@@@@@@@@@@@@@@####++++              ",
"              ++++####@@@@@@@@@@@@@@@@@@@@@@@@@@@@@@@@@@@@####++++              ",
"              ++++####@@@@@@@@@@@@@@@@@@@@@@@@@@@@@@@@@@@@####++++              ",
"              ++++####@@@@@@@@@@@@@@@@@@@@@@@@@@@@@@@@@@@@####++++              ",
"              ++++####@@@@@@@@@@@@@@@@@@@@@@@@@@@@@@@@@@@@####++++              ",
"              ++++####@@@@@@@@@@@@@@@@@@@@@@@@@@@@@@@@@@@@####++++              ",
"              ++++########@@@@@@@@@@@@@@@@@@@@@@@@@@@@########++++              ",
"              ++++########@@@@@@@@@@@@@@@@@@@@@@@@@@@@########++++              ",
"              ++++########@@@@@@@@@@@@@@@@@@@@@@@@@@@@########++++              ",
"              ++++########@@@@@@@@@@@@@@@@@@@@@@@@@@@@########++++              ",
"                  ++++############@@@@@@@@@@@@################++++              ",
"                  ++++############@@@@@@@@@@@@################++++              ",
"                  ++++############@@@@@@@@@@@@################++++              ",
"                  ++++############@@@@@@@@@@@@################++++              ",
"                  ++++####################################++++                  ",
"                  ++++####################################++++                  ",
"                  ++++####################################++++                  ",
"                  ++++####################################++++                  ",
"                  ++++$$$$############################$$$$++++                  ",
"                  ++++$$$$############################$$$$++++                  ",
"                  ++++$$$$############################$$$$++++                  ",
"                  ++++$$$$############################$$$$++++                  ",
"                      ++++$$$$$$$$############$$$$$$$$++++                      ",
"                      ++++$$$$$$$$############$$$$$$$$++++                      ",
"                      ++++$$$$$$$$############$$$$$$$$++++                      ",
"                      ++++$$$$$$$$############$$$$$$$$++++                      ",
"                      ++++@@@@$$$$$$$$$$$$$$$$$$$$@@@@++++                      ",
"                      ++++@@@@$$$$$$$$$$$$$$$$$$$$@@@@++++                      ",
"                      ++++@@@@$$$$$$$$$$$$$$$$$$$$@@@@++++                      ",
"                      ++++@@@@$$$$$$$$$$$$$$$$$$$$@@@@++++                      ",
"                  ++++++++@@@@@@@@@@@@@@@@@@@@@@@@@@@@++++++++                  ",
"                  ++++++++@@@@@@@@@@@@@@@@@@@@@@@@@@@@++++++++                  ",
"                  ++++++++@@@@@@@@@@@@@@@@@@@@@@@@@@@@++++++++                  ",
"                  ++++++++@@@@@@@@@@@@@@@@@@@@@@@@@@@@++++++++                  ",
"              ++++$$$$$$$$####@@@@@@@@@@@@@@@@@@@@####$$$$$$$$++++              ",
"              ++++$$$$$$$$####@@@@@@@@@@@@@@@@@@@@####$$$$$$$$++++              ",
"              ++++$$$$$$$$####@@@@@@@@@@@@@@@@@@@@####$$$$$$$$++++              ",
"              ++++$$$$$$$$####@@@@@@@@@@@@@@@@@@@@####$$$$$$$$++++              ",
"              ++++$$$$$$$$%%%%&&&&&&&&%%%%&&&&&&&&%%%%$$$$$$$$++++              ",
"              ++++$$$$$$$$%%%%&&&&&&&&%%%%&&&&&&&&%%%%$$$$$$$$++++              ",
"              ++++$$$$$$$$%%%%&&&&&&&&%%%%&&&&&&&&%%%%$$$$$$$$++++              ",
"              ++++$$$$$$$$%%%%&&&&&&&&%%%%&&&&&&&&%%%%$$$$$$$$++++              ",
"                  ++++++++%%%%%%%%%%%%++++%%%%%%%%%%%%++++++++                  ",
"                  ++++++++%%%%%%%%%%%%++++%%%%%%%%%%%%++++++++                  ",
"                  ++++++++%%%%%%%%%%%%++++%%%%%%%%%%%%++++++++                  ",
"                  ++++++++%%%%%%%%%%%%++++%%%%%%%%%%%%++++++++                  ",
"                      ++++########++++    ++++########++++                      ",
"                      ++++########++++    ++++########++++                      ",
"                      ++++########++++    ++++########++++                      ",
"                      ++++########++++    ++++########++++                      ",
"                                                                                ",
"                                                                                ",
"                                                                                ",
"                                                                                "};
