/* XPM */
static char *a9929b3be5ef49388193c068f0ab33acr1sXg0OSOHXdyfNd[] = {
/* columns rows colors chars-per-pixel */
"23 23 11 1 ",
"  c None",
". c black",
"X c #573A23",
"o c #402717",
"O c #AC7B5D",
"+ c #21110D",
"@ c #C1AC8F",
"# c #787E97",
"$ c #A4A8B5",
"% c #2C65B5",
"& c #1D438A",
/* pixels */
"                       ",
"       .... ..         ",
"       .XXo.X...       ",
"       ..XXoXXXo.      ",
"      .oXXXXXXXX.      ",
"     .oXXXXoXXXXo.     ",
"     .XXXooooXXXX.     ",
"     .XXXoOOOOoXX.     ",
"     .XXoOOOOOOoX.     ",
"     .oXO+@@@+Oo.      ",
"      .X@+@@@+@@.      ",
"      .O@@@@@@@O.      ",
"       .O@@@@@O.       ",
"       .oOOOOOo.       ",
"      ..oX###Xo..      ",
"     .@@XX#$$XX@@.     ",
"     .@@%%%&%%%@@.     ",
"      ..%%&.&%%..      ",
"       .oX. .Xo.       ",
"                       ",
"                       ",
"                       ",
"                       "
};
