/* XPM */
static char *_a1a8d0ed47e4748dfd4071957a6049bA8hLW543G5iHYpdR[] = {
/* columns rows colors chars-per-pixel */
"23 23 11 1 ",
"  c None",
". c black",
"X c #573A23",
"o c #402717",
"O c #AC7B5D",
"+ c #21110D",
"@ c #C1AC8F",
"# c #787E97",
"$ c #A4A8B5",
"% c #2C65B5",
"& c #1D438A",
/* pixels */
"       .... ..         ",
"       .XXo.X...       ",
"       ..XXoXXXo.      ",
"      .oXXXXXXXX.      ",
"     .oXXXXoXXXXo.     ",
"     .XXXooooXXXX.     ",
"     .XXXoOOOOoXX.     ",
"     .XXoOOOOOOoX.     ",
"     .oXO+@@@+Oo.      ",
"      .X@+@@@+@@.      ",
"      .O@@@@@@@O.      ",
"       .O@@@@@O.       ",
"       .oOOOOOo.       ",
"       .oX###Xo.       ",
"       .XX#$$XX.       ",
"      .@@X%%%X@@.      ",
"      .@@%%&%%@@.      ",
"       .%%&.&%%.       ",
"       .oX. .Xo.       ",
"                       ",
"                       ",
"                       ",
"                       "
};
