/* XPM */
static char *_85f2bcb15c64326fca96ab72efbae14ZfJ8yWjQHMqg7LYV[] = {
/* columns rows colors chars-per-pixel */
"80 80 11 1 ",
"  c None",
". c black",
"X c #573A23",
"o c #402717",
"O c #AC7B5D",
"+ c #21110D",
"@ c #C1AC8F",
"# c #787E97",
"$ c #A4A8B5",
"% c #2C65B5",
"& c #1D438A",
/* pixels */
"                  ................    ........                                  ",
"                  ................    ........                                  ",
"                  ................    ........                                  ",
"                  ................    ........                                  ",
"                  ....XXXXXXXXoooo....XXXX............                          ",
"                  ....XXXXXXXXoooo....XXXX............                          ",
"                  ....XXXXXXXXoooo....XXXX............                          ",
"                  ....XXXXXXXXoooo....XXXX............                          ",
"                  ........XXXXXXXXooooXXXXooooXXXXXXXX....                      ",
"                  ........XXXXXXXXooooXXXXooooXXXXXXXX....                      ",
"                  ........XXXXXXXXooooXXXXooooXXXXXXXX....                      ",
"                  ........XXXXXXXXooooXXXXooooXXXXXXXX....                      ",
"              ....ooooXXXXXXXXXXXXXXXXXXXXXXXXXXXXXXXXXXXX....                  ",
"              ....ooooXXXXXXXXXXXXXXXXXXXXXXXXXXXXXXXXXXXX....                  ",
"              ....ooooXXXXXXXXXXXXXXXXXXXXXXXXXXXXXXXXXXXX....                  ",
"              ....ooooXXXXXXXXXXXXXXXXXXXXXXXXXXXXXXXXXXXX....                  ",
"          ....ooooXXXXXXXXXXXXXXXXXXXXXXXXXXXXXXXXXXXXXXXXXXXX....              ",
"          ....ooooXXXXXXXXXXXXXXXXXXXXXXXXXXXXXXXXXXXXXXXXXXXX....              ",
"          ....ooooXXXXXXXXXXXXXXXXXXXXXXXXXXXXXXXXXXXXXXXXXXXX....              ",
"          ....ooooXXXXXXXXXXXXXXXXXXXXXXXXXXXXXXXXXXXXXXXXXXXX....              ",
"          ....ooooXXXXXXXXooooXXXXXXXXXXXXooooooooXXXXXXXXXXXX....              ",
"          ....ooooXXXXXXXXooooXXXXXXXXXXXXooooooooXXXXXXXXXXXX....              ",
"          ....ooooXXXXXXXXooooXXXXXXXXXXXXooooooooXXXXXXXXXXXX....              ",
"          ....ooooXXXXXXXXooooXXXXXXXXXXXXooooooooXXXXXXXXXXXX....              ",
"          ....ooooooooooooooooXXXXXXXXXXXXooooOOOOOOOOooooXXXXoooo....          ",
"          ....ooooooooooooooooXXXXXXXXXXXXooooOOOOOOOOooooXXXXoooo....          ",
"          ....ooooooooooooooooXXXXXXXXXXXXooooOOOOOOOOooooXXXXoooo....          ",
"          ....ooooooooooooooooXXXXXXXXXXXXooooOOOOOOOOooooXXXXoooo....          ",
"          ....ooooXXXXooooooooXXXXXXXXooooOOOOOOOOOOOOOOOOoooooooo....          ",
"          ....ooooXXXXooooooooXXXXXXXXooooOOOOOOOOOOOOOOOOoooooooo....          ",
"          ....ooooXXXXooooooooXXXXXXXXooooOOOOOOOOOOOOOOOOoooooooo....          ",
"          ....ooooXXXXooooooooXXXXXXXXooooOOOOOOOOOOOOOOOOoooooooo....          ",
"          ....ooooXXXXXXXXOOOOooooXXXXOOOO++++@@@@@@@@++++....oooo....          ",
"          ....ooooXXXXXXXXOOOOooooXXXXOOOO++++@@@@@@@@++++....oooo....          ",
"          ....ooooXXXXXXXXOOOOooooXXXXOOOO++++@@@@@@@@++++....oooo....          ",
"          ....ooooXXXXXXXXOOOOooooXXXXOOOO++++@@@@@@@@++++....oooo....          ",
"          ....ooooooooXXXXOOOOOOOOoooo@@@@++++@@@@@@@@++++........              ",
"          ....ooooooooXXXXOOOOOOOOoooo@@@@++++@@@@@@@@++++........              ",
"          ....ooooooooXXXXOOOOOOOOoooo@@@@++++@@@@@@@@++++........              ",
"          ....ooooooooXXXXOOOOOOOOoooo@@@@++++@@@@@@@@++++........              ",
"              ....ooooooooOOOOOOOO@@@@@@@@@@@@@@@@@@@@@@@@....                  ",
"              ....ooooooooOOOOOOOO@@@@@@@@@@@@@@@@@@@@@@@@....                  ",
"              ....ooooooooOOOOOOOO@@@@@@@@@@@@@@@@@@@@@@@@....                  ",
"              ....ooooooooOOOOOOOO@@@@@@@@@@@@@@@@@@@@@@@@....                  ",
"                  ....ooooooooOOOOOOOO@@@@@@@@@@@@@@@@OOOO....                  ",
"                  ....ooooooooOOOOOOOO@@@@@@@@@@@@@@@@OOOO....                  ",
"                  ....ooooooooOOOOOOOO@@@@@@@@@@@@@@@@OOOO....                  ",
"                  ....ooooooooOOOOOOOO@@@@@@@@@@@@@@@@OOOO....                  ",
"                      ....ooooooooOOOOOOOOOOOOOOOOOOOO....                      ",
"                      ....ooooooooOOOOOOOOOOOOOOOOOOOO....                      ",
"                      ....ooooooooOOOOOOOOOOOOOOOOOOOO....                      ",
"                      ....ooooooooOOOOOOOOOOOOOOOOOOOO....                      ",
"                      ....ooooooooXXXX############oooo....                      ",
"                      ....ooooooooXXXX############oooo....                      ",
"                      ....ooooooooXXXX############oooo....                      ",
"                      ....ooooooooXXXX############oooo....                      ",
"                      ....ooooXXXXXXXX########$$$$oooo....                      ",
"                      ....ooooXXXXXXXX########$$$$oooo....                      ",
"                      ....ooooXXXXXXXX########$$$$oooo....                      ",
"                      ....ooooXXXXXXXX########$$$$oooo....                      ",
"                  ....@@@@@@@@XXXXXXXX####$$$$$$$$ooooOOOO....                  ",
"                  ....@@@@@@@@XXXXXXXX####$$$$$$$$ooooOOOO....                  ",
"                  ....@@@@@@@@XXXXXXXX####$$$$$$$$ooooOOOO....                  ",
"                  ....@@@@@@@@XXXXXXXX####$$$$$$$$ooooOOOO....                  ",
"                  ....@@@@@@@@XXXXXXXX%%%%%%%%%%%%ooooOOOO....                  ",
"                  ....@@@@@@@@XXXXXXXX%%%%%%%%%%%%ooooOOOO....                  ",
"                  ....@@@@@@@@XXXXXXXX%%%%%%%%%%%%ooooOOOO....                  ",
"                  ....@@@@@@@@XXXXXXXX%%%%%%%%%%%%ooooOOOO....                  ",
"                      ....&&&&%%%%%%%%&&&&%%%%%%%%........                      ",
"                      ....&&&&%%%%%%%%&&&&%%%%%%%%........                      ",
"                      ....&&&&%%%%%%%%&&&&%%%%%%%%........                      ",
"                      ....&&&&%%%%%%%%&&&&%%%%%%%%........                      ",
"                      ....ooooXXXX........ooooXXXX....                          ",
"                      ....ooooXXXX........ooooXXXX....                          ",
"                      ....ooooXXXX........ooooXXXX....                          ",
"                      ....ooooXXXX........ooooXXXX....                          ",
"                                                                                ",
"                                                                                ",
"                                                                                ",
"                                                                                "
};
