/* XPM */
static char *_c8811e6c38248d59dd51443969c9de0yJdf6zGwYphxW8Hc[] = {
/* columns rows colors chars-per-pixel */
"80 80 121 2 ",
"   c None",
".  c #4E2711",
"X  c #4E2811",
"o  c #502C17",
"O  c #502F1B",
"+  c #51311E",
"@  c #533523",
"#  c #563926",
"$  c #593925",
"%  c #543B2B",
"&  c #593E2D",
"*  c #583F30",
"=  c #603E28",
"-  c #5E432F",
";  c #574335",
":  c #5C4333",
">  c #564639",
",  c #5C4739",
"<  c #57483A",
"1  c #5D493C",
"2  c #614633",
"3  c #624C3C",
"4  c #5D4E43",
"5  c #5B5146",
"6  c #5D544A",
"7  c #614F41",
"8  c #625245",
"9  c #6B5544",
"0  c #61554B",
"q  c #65594E",
"w  c #6A5B4C",
"e  c #605750",
"r  c #645D54",
"t  c #695E54",
"y  c #665F58",
"u  c #676057",
"i  c #696056",
"p  c #676159",
"a  c #69665E",
"s  c #6A665E",
"d  c #6A675E",
"f  c #6A665F",
"g  c #6A675F",
"h  c #6B675F",
"j  c #6A655D",
"k  c #6C665E",
"l  c #6C675E",
"z  c #6A645C",
"x  c #6C685E",
"c  c #6D685F",
"v  c #6D695F",
"b  c #706251",
"n  c #746959",
"m  c #71695C",
"M  c #6B6760",
"N  c #6B6760",
"B  c #6B6860",
"V  c #6A6862",
"C  c #6B6962",
"Z  c #6B6963",
"A  c #6C6860",
"S  c #6C6960",
"D  c #6D6861",
"F  c #6C6961",
"G  c #6D6961",
"H  c #6C6A60",
"J  c #6D6A61",
"K  c #6D6A62",
"L  c #6E6A62",
"P  c #6E6B62",
"I  c #6F6B63",
"U  c #6C6961",
"Y  c #776F65",
"T  c #736E66",
"R  c #796E60",
"E  c #796F61",
"W  c #736F68",
"Q  c #757267",
"!  c #797061",
"~  c #7D7365",
"^  c #7D7464",
"/  c #7D7465",
"(  c #76756A",
")  c #7C7568",
"_  c #79756D",
"`  c #79766D",
"'  c #7A766E",
"]  c #7B766E",
"[  c #797469",
"{  c #7B786E",
"}  c #7B786F",
"|  c #7C786F",
" . c #7F7B6E",
".. c #7C786D",
"X. c #7D7B73",
"o. c #7D7B71",
"O. c #81796E",
"+. c #817F76",
"@. c #848074",
"#. c #858174",
"$. c #858478",
"%. c #87877C",
"&. c #84837A",
"*. c #88897C",
"=. c #89887D",
"-. c #8A897D",
";. c #8A897E",
":. c #8E8A7F",
">. c #8A8B80",
",. c #8A8C80",
"<. c #8C8D82",
"1. c #8D8D82",
"2. c #8F8D85",
"3. c #908E85",
"4. c #8C9086",
"5. c #929088",
"6. c #939189",
"7. c #95938B",
"8. c #96948B",
"9. c #97978F",
"0. c #999990",
/* pixels */
"$ $ $ $ $ $ $ $ $ $ $ $ $ $ $ $ $ $ $ $   $ = $ $ $ $ $ $ $ $ $ $ $ $ $ $ $ $ $ $ $ $ $ $ $ $ $ $ $ $ $ $ $ $ $ $ $ $ $   $ = $ $ $ $ $ $ $ $ $ $ $ $ $ $ $ $ $ ",
"R R R R R R R R R R R R R R R R R R / n 3 b ~ R R R R R R R R R R R R R R R R R R R R R R R R R R R R R R R R R R R / n 3 b ~ R R R R R R R R R R R R R R R R R ",
">.>.>.>.>.>.>.>.>.>.>.>.>.>.>.>.>.,.4.#.9 / 4.>.>.>.>.>.>.>.>.>.>.>.>.>.>.>.>.>.>.>.>.>.>.>.>.>.>.>.>.>.>.>.>.>.>.,.4.#.9 / 4.>.>.>.>.>.>.>.>.>.>.>.>.>.>.>.>.>.",
"$.$.$.$.$.$.$.$.$.$.$.$.$.$.$.$.$.$.%.| 9 ! =.$.$.$.$.$.$.$.$.$.$.$.$.$.$.$.$.$.$.$.$.$.$.$.$.$.$.$.$.$.$.$.$.$.$.$.%.| 9 ! =.$.$.$.$.$.$.$.$.$.$.$.$.$.$.$.$.$.",
"=.=.=.=.=.=.=.=.=.=.=.=.=.=.=.=.=.=.1.#.w ) 1.=.=.=.=.=.=.=.=.=.=.=.=.=.=.=.=.=.=.=.=.=.=.=.=.=.=.=.=.=.=.=.=.=.=.=.1.#.w ) 1.=.=.=.=.=.=.=.=.=.=.=.=.=.=.=.=.=.",
"2.2.2.2.2.2.2.2.2.2.2.2.2.2.3.5.8.8.0.:.w O.9.8.8.8.5.5.5.5.5.5.5.5.5.5.5.5.5.5.2.2.2.2.2.2.2.2.2.2.2.2.2.2.3.5.8.8.0.:.w O.9.8.8.8.5.5.5.5.5.5.5.5.5.5.5.5.5.5.",
"_ _ _ _ _ _ _ _ _ _ _ _ _ _ _ _ } | X.Y 3 k X.| | } _ _ _ _ _ _ _ _ _ _ _ _ _ _ _ _ _ _ _ _ _ _ _ _ _ _ _ _ _ _ | | X.Y 3 k X.| | } _ _ _ _ _ _ _ _ _ _ _ _ _ _ ",
"j j j j j j j j j j j j j j j z z z j r , 0 j z z z z z z z z z z z z z z z z z j j j j j j j j j j j j j j j z z z j r , 0 j z z z z z z z z z z z z z z z z z ",
"c c c c c c c c c c c c c c c c c c D i , q D c c c c c c c c c l l l l l l l l c c c c c c c c c c c c c c c c c c D i , q D c c c c c c c c c l l l l l l l l ",
"c c c c c c c c c c c c c c c c c l D i , q D c c l l c c c c l l l l l l l l l c c c c c c c c c c c c c c c c c l D i , q D c c l l c c c c l l l l l l l l l ",
"c c c c c c c c c c c c c c l l l l D i , q D l l l l j j j l l l l l l l j j j c c c c c c c c c c c c c c l l l l D i , q D l l l l j j j l l l l l l l j j j ",
"l l l l l l l l l l l l l l j j j j D i , q D j j j j j j j j j j j j j j j j j l l l l l l l l l l l l l l j j j j D i , q D j j j j j j j j j j j j j j j j j ",
"j l l l l l l l l l l l l l j j j j D i , q D j j j j j j j z z j j j j j j j j j l l l l l l l l l l l l l j j j j D i , q D j j j j j j j j j j j j j j j j j ",
"j j j j j j j j j j j j j j j j j j D t , q D j j j j j j j z z j j j j j j j j j j j j j j j j j j j j j j j j j j D t , q D j j j j j j j j j j j j j z z j j ",
"j j j j j j j j j j j j j j j j j j D t : 0 D j j j j j z z z z j j j j j j j j j j j j j j j j j j j j j j j j j j D t : 0 D j j j j j j j j j j j j j z z z z ",
"j j j j j j j j j j j j j j j j j j D r # 8 Z z z z z z z z z z z z z z z z z z j j j j j j j j j j j j j j j j j j D r # 8 Z z z z z z z z z z z z z z z z z z ",
"z z j j z z z z z z z z z z z z z z j q # 8 M z z z z z z z z z z z z z z z z z z z j j z z z z z z z z z z z z z z j q # 8 M z z z z z z z z z z z z z z z z z ",
"z z z z z z z z z z z z z z z z z z j q # 8 j z z p p p z z z z p z z z z z z z z z z z z z z z z z z z z z z z z z j q # 8 j z z z z z z z p z z p z z z z z z ",
"z z z z z z z z p z z z z z z z z z j q # 8 j z p p z z z z z z p p z z z z z z z z z z z z p p z z z z z z z z z z j q # 8 j z p z p p z p p z z z z p z z z z ",
"p p p p p p p p p z p z z z z z p z j q # 8 j z z z z z z z z z p p z z z z p p p p p p p p p p p z p z z p p z z z j q # 8 j z p z z p z z z z z z z z z z z z ",
"p p p p p p p p p p p p p p p p p p j e # 7 j p p p p p p p p p p p p p p p p p p p p p p p p p p p p p p p p p p p j e # 7 j p p p p p p p p p p p p p p p p p ",
"j j j j j j j j j j j j j j j j z z Z e + 4 Z j j j j j z z z z z z j j j z z j j j j j z z z z j j j j z z j j z z Z e + 4 Z j j z j j z z z z j j z z z z j j ",
": : : : : : : : : : : : : : : : : : : : & - : : : : : : : : : : : : : : : : : : : : : : : : : : : : : : : : : : : : : : & - : : : : : : : : : : : : : : : : : : ",
"+ + + + + + + + + + + + + + + + + + + # 4 & + + + + + @ O X O + + + + + + + + + + + + + + + + + + + + + + + + + + + O @ 4 & O + + + + + O X + @ + + + + + + + + ",
"5 5 5 5 5 5 5 5 5 5 5 5 5 5 5 5 5 5 5 5 5 5 5 5 5 5 5 6 ; @ < 5 4 4 4 4 4 4 4 4 4 4 4 4 4 4 4 4 4 4 4 4 4 4 4 4 4 4 4 4 5 4 4 4 4 4 4 5 ; @ 1 5 5 5 5 5 5 5 5 5 ",
"6 6 6 6 6 6 6 6 6 6 6 6 6 6 6 6 6 6 6 6 5 6 6 6 6 6 6 6 < @ 4 6 5 5 5 5 5 5 5 5 5 5 5 5 5 5 5 5 5 5 5 5 5 5 5 5 5 5 5 5 5 5 5 5 5 5 5 6 < @ 4 6 6 6 6 6 6 6 6 6 ",
"5 5 5 5 5 5 5 5 5 5 5 5 5 5 5 5 5 5 5 5 5 5 5 5 5 5 5 6 < % 4 5 5 5 5 5 5 5 5 5 5 5 5 5 5 5 5 5 5 5 5 5 5 5 5 5 5 5 5 5 5 5 5 5 5 5 5 5 < % 4 6 5 5 5 5 5 5 5 6 ",
"5 5 5 5 5 5 5 5 5 5 5 5 5 5 5 5 5 5 5 5 5 5 5 5 5 5 5 6 < % 4 5 5 5 5 5 5 5 5 5 5 5 5 5 5 5 5 5 5 5 5 5 5 5 5 5 5 5 5 5 5 5 5 5 5 5 5 5 < % 4 6 5 5 5 5 5 5 5 6 ",
"5 5 5 5 5 5 5 5 5 5 5 5 5 5 5 5 5 5 5 5 5 5 5 5 5 5 5 6 < % 4 5 5 5 5 5 5 5 5 5 5 5 5 5 5 5 5 5 5 5 5 5 5 5 5 5 5 5 5 5 5 5 5 5 5 5 5 5 < % 4 6 5 5 5 5 5 5 5 6 ",
"5 5 5 5 5 5 5 5 5 5 5 5 5 5 5 5 5 5 5 5 5 5 5 5 5 5 5 6 < % 4 5 5 5 5 5 5 5 5 5 5 5 5 5 5 5 5 5 5 5 5 5 5 5 5 5 5 5 5 5 5 5 5 5 5 5 5 5 < % 4 6 5 5 5 5 5 5 5 5 ",
"5 5 5 5 5 5 5 5 5 5 5 5 5 5 5 5 5 5 5 5 5 5 5 5 5 5 5 6 < % 4 5 5 5 5 5 5 5 5 5 5 5 5 5 5 5 5 5 5 5 5 5 5 5 5 5 5 5 5 5 5 5 5 5 5 5 5 5 < % 4 6 5 5 5 5 5 5 5 5 ",
"r r r r r r r r r r r r r r r r r r r r r r r r r r r r 5 ; 6 e 6 6 6 6 6 6 6 6 6 6 6 6 6 6 6 6 6 6 6 6 6 6 6 6 6 6 6 6 6 6 6 6 6 6 6 e 4 ; 0 r r r r r r r r r ",
"j j j j j j j j j j j j j z z z z z z z z z z j j j j Z 0 : 0 y r r r r r r r r r r r r r r e e e e e r r e e e e e r r r e e e r r r y 4 : r Z j z z z z z z z ",
"e e e e e e e e e e e e e e e e e e e e e e r e 0 0 0 0 > @ > 4 4 4 4 4 4 4 4 4 4 4 4 4 4 5 e e e e e 6 5 6 6 0 0 0 0 0 0 0 0 6 4 4 4 4 : @ 4 0 q r e e e e e e ",
"0 0 0 0 0 0 8 4 4 5 0 0 0 0 0 0 0 0 0 0 0 0 0 5 > > : : : & & & & : , , , 1 1 1 1 1 1 1 1 4 6 e r e 6 1 4 0 0 0 0 0 0 0 0 0 0 5 > > : : : & & : 4 0 0 0 0 0 0 0 ",
"z z z z z z j 0 8 z j z z z z z z z z z z z j z z i i i z i i t r i z z z z z k l l l l l l 4 4 r 6 1 q D l l j j j j j j j j z z i i i i i t i z j z z z z z z ",
"j j j j j j j 0 8 z j j j j j j j j j j j j j j j j j j j j j j j j j j j j j j j j j j M j i 8 > 1 q j M j j j j j j j j j j j j j j j j j j j j j j j j j j j ",
"p p p p p p z 0 5 p z p p p p p p p z p p p p p p p p p p p p p p p p p p p p p p p p p p p Z 8 : 0 l j r p p p p p p p p p p p p p p p p p p p p p p p p p p p ",
"p p p p p p z 0 5 p p p p p p p p p p p p p p p p p p p p p p p p p p p p p p p p p p p p p z 4 1 D z p p p p p p p p p p p p p p p p p p p p p p p p p p p p p ",
"p p p p p p z 0 5 p z p p p p p p p p p p p p p p p p p p p p p p p p p p p p p p p p p p p z 4 1 p z p p p p p p p p p p p p p p p p p p p p p p p p p p p p p ",
"p p p p p p z 0 5 p p p p p p p p p p p p p p p p p p p p p p p p p p p p p p p p p p p p p z 4 1 p z p p p p p p p p p p p p p p p p p p p p p p p p p p p p p ",
"p p p p p p z 0 6 p p p p p p p p p p p p p p p p p p p p p p p p p p p p p p p p p p p p p z 4 1 p z p p p p p p p p p p p p p p p p p p p p p p p p p p p p p ",
"p p p p p p z 5 4 p z p p p p p p p p p p p p p p p p p p p p p p p p p p p p p p p p p p p z 4 1 p z p p p p p p p p p p p p p p p p p p p p p p p p p p p p p ",
"z z z z j j j 4 1 z j z p z z z z z z z z z z z z z z z z z z z z z z z z z z z z z z z j j j 4 1 z j z p z z z z z z z z z z z z z z z z z z z z z z z z z z z ",
"r r r r e e r , : q e r r r r r r r r r r r r r r r r r r r r r r r r r r r r r r r r r e e e , : q e r r r r r r r r r r r r r r r r r r r r r r r r r r r r r ",
"4 4 4 1 : : & # # & : 4 0 0 0 0 0 0 0 0 0 0 0 0 6 4 1 4 4 4 4 4 1 4 0 0 0 0 0 6 4 1 4 1 : : & # # & : 4 0 0 0 0 0 0 0 0 0 0 0 0 6 4 1 4 4 4 4 4 1 4 0 0 0 0 0 0 ",
"e e e q 0 0 0 0 0 0 0 r r r r r r r r r z z z z u r r r 0 4 e t r r z z z z z u e e e q 0 0 0 0 0 0 0 r r r r r r r r r z z z z u r r r 0 4 e r r r z z z z z z ",
"j j j j j j j j j j j z z z z z z z z z j j j j j j j Z r 4 z M j j j j j j j j j j j j j j j j j j j z z z z z z z z z j j j j j j j Z r 4 z M j j j j j j j j ",
"y y y y y y y y y y y y y y y y y y y y y y y y y y y p 0 4 r z y y y y y y y y y y y y y y y y y y y y y y y y y y y y y y y y y y y p 0 4 e p y p p p y y y y ",
"y y y y y y y y y y y y y y y y y y y y y y y y y y y p 0 4 r z y y y y y y y y y y y y y y y y y y y y y y y y y y y y y y y y y y y p 0 4 e p y y y y y y y y ",
"y y y y y y y y y y y y y y y y y y y y y y y y y y y p e 5 e y y y y y y y y y y y y y y y y y y y y y y y y y y y y y y y y y y y y p e 5 e y y y p p y y y y ",
"y y y y y y y y y y y y y y y y y y y y y y y y y y y p e 5 e y y y y y y y y y y y y y y y y y y y y y y y y y y y y y y y y y y y y p e 5 e y y y y y y y y y ",
"y y y y y y y y y y y y y y y y y y y y y y y y y y y p e 8 r y y y y y y y y y y y y y y y y y y y y y y y y y y y y y y y y y y y y p e 8 r y y y y y y y y y ",
"y y y y y y y y y y y y y y y y y y y y y y y y y y y p 0 1 e p y y y y y y y y y y y y y y y y y y y y y y y y y y y y y y y y y y y p 0 1 e p y y y y y y y y ",
"y y y y y p p p p p p p p p p p p p p p p p p p p p p j 5 & e j p p p p p p p p p y y y y p p p p p p p p p p p p p p p p p p p p p p j 5 & e j p p p p p p p p ",
"r r y r r r r r y r r r r r r r r r r r r r r r r r r p 4 # 0 p r r r r r r r r r r r r r r r r y r r r r r r r r r r r r r r r y y r p 4 # 0 p r r r r r r r r ",
"0 0 0 0 4 4 4 5 5 5 5 6 6 6 6 5 5 5 5 5 5 5 5 6 4 : & * # @ & & > 5 5 5 5 5 5 5 0 0 0 6 4 4 4 4 8 5 8 8 6 6 6 6 6 5 8 8 8 6 6 8 4 : & : # @ & & 1 6 5 5 5 5 5 5 ",
"r r r r q q q 4 4 r t t t t t t t t t t t t t t t 8 7 7 8 8 8 7 0 t t t t t t t i z z i t t t 8 4 q r e e e e e e q q q e e e e q 7 1 1 3 7 1 1 8 e q q q q q q ",
"j j j j j M D 0 0 W Q W W W W W W W W W W W W W W Q Q Q Q Q Q Q W W W W Y W W W W W W W W W Q e 5 j M l j j j j j j j j j j M j j M D D D D D D M M j j j j j j ",
"y y y y p p p 8 8 l D D D D D D D D D D D D D D D D D D D D D D D D D D D D D D D D D D D D D 0 4 y p y y y y y y y y y y y y y p p p p p p p p p y y y y y y y ",
"y y y y y y p 8 8 l D l l l l l l M l l l l l l l l l l M l l l l l l l l l l l l l l l l M D 0 4 r p y y y y y y y y y p y y y y y y y y y y y y y y y y y y y ",
"y y y y y y p 0 0 l D l l l l l M l l l l l l l l l l l l l M l l l l l l l l l l l l l M l D q 6 r p y y y y y y y y y p y y p y y y y y y y y y y y y y y y y ",
"y y y y y y p e e l D l l l l l l l l l l l l l l l l l l l l l l l l l l l l l l l l l M l D r 0 r y y y y y y y y y y y y y y y y y y y y y y y y y y y y y y ",
"y y y y y y p 0 0 l D l l l l l l l l l l l l l l l l l l l l l l l l l l l l l l l l l l l D q 5 r y y y y y y y y y y y y y y y y y y y y y y y y y y y y y y ",
"y y y y y y p 4 1 l D l l l l l l l l l l l l l l l l l l l l l l l l l l l l l l l l l l D D 8 1 r p y y y y y y y y y y y y y y y y y y y y y y y y y y y y y ",
"p p p p p p p 1 , l D D D D D D D D D D l D D D D D D D D D D D D D D D D D D D D D D D D D D 7 : y p p p p p p p p p p y y p p p p p p p p p p p p p p p p p p ",
"p p p p p p j 4 , D I D D D D D D D D D D D D D D D D D D D D D D D D D D D D D D D D D D P I 8 > p z p p p p p p p p p y p p p p p p p p p p p p p p p p p p p ",
": : : : : : , # # , , , , , , , , , : 3 j 0 : , , , , , , , , , , , , , , , , , , , , , , , , % @ : : : : : : : : : : , r 7 : : : : : : : : : : : : : : : : : : ",
": : : : : : : : : - - - - - - - - - - 2 8 3 - - - - - - - - - - - - - - - - - - - - - - - - - : 2 : : : : : : : : : - 2 8 3 - : : : : : : : : : : : : : : : : : ",
"Q Q Q Q Q Q Q Q Q Q Q Q Q Q Q Q Q Q ` m 2 t ` Q Q Q Q Q Q Q Q Q Q Q Q Q Q Q Q Q Q Q Q Q Q Q Q Q Q Q Q Q Q Q Q Q Q Q ` m 2 t ` Q Q Q Q Q Q Q Q Q Q Q Q Q Q Q Q Q ",
"` ` ` ` ` ` ` ` ` ` ` ` ` ` ` ` ` ` o.Y 8 m o.` ` ` ` ` ` ` ` ` ` ` ` ` ` ` ` ` ` ` ` ` ` ` ` ` ` ` ` ` ` ` ` ` ( ( } R 8 m o.` ` ` ` ` ` ` ` ` ` ` ` ` ` ` ` ` ",
"( ( ( ( ( ( ( ( ( ( ( ( ( ( ( ( ( ( ` T w m ` ( ( ( ( ( ( ( ( ( ( ( ( ( ( ( ( ( ( ( ( ( ( ( ( ( ( ( ( ( ( ( ( ( ( ( ( T w m ` ( ( ( ( ( ( ( ( ( ( ( ( ( ( ( ( ( ",
"Q Q Q Q Q Q Q Q Q Q Q Q Q Q Q Q Q Q ( T w k ( Q Q Q Q Q Q Q Q Q Q Q Q Q Q Q Q Q Q Q Q Q Q Q Q Q Q Q Q Q Q Q Q Q Q Q ( T w k ( Q Q Q Q Q Q Q Q Q Q Q Q Q Q Q Q Q ",
"X.X.X.X.X.X.X.X.X.X.X.X.X.X.X.X.X.X.X.[ w R X.X.X.X.X.X.X.X.X.X.X.X.X.X.X.X.X.X.X.X.X.X.X.X.X.X.X.X.X.X.X.X.X.X.X.X.X.[ w R X.X.X.X.X.X.X.X.X.X.X.X.X.X.X.X.X.X.",
"+.+.+.+.+.+.+.+.+.+.+.+.+.+.+.+.+.+.&.| w R &.+.+.+.+.+.+.+.+.+.+.+.+.+.+.+.+.+.+.+.+.+.+.+.+.+.+.+.+.+.+.+.+.+.+.+.&.| w R &.+.+.+.+.+.+.+.+.+.+.+.+.+.+.+.+.+.",
"j j j j j j j j j j j j j j j j j j j z 0 i j j j j j j j j j j j j j j j j j j j j j j j j j j j j j j j j j j j j j z 0 i j j j j j j j j j j j j j j j j j j ",
"r r r r r r r r r r r r r r r r r r r r q r r r r r r r r r r r r r r r r r r r r r r r r r r r r r r r r r r r r r r r q r r r r r r r r r r r r r r r r r r r ",
"j j j j j j j j j j j j j j j j j j M r : 0 Z j j j j j j j j j j j j j j j j j j j j j j j j j j j j j j j j j j j M r : 0 Z j j j j j j j j j j j j j j j j j ",
"4 4 4 4 4 4 4 4 4 4 4 4 4 4 4 4 4 4 8 , o : 8 4 4 4 4 4 4 4 4 4 4 4 4 4 4 4 4 4 4 4 4 4 4 4 4 4 4 4 4 4 4 4 4 4 4 4 8 , o : 8 4 4 4 4 4 4 4 4 4 4 4 4 4 4 4 4 4 ",
"X X X X X X X X X X X X X X X X X X . X X X . X X X X X X X X X X X X X X X X X X X X X X X X X X X X X X X X X X X . X X X . X X X X X X X X X X X X X X X X X "
};
