/* XPM */
static char * 2_xpm[] = {
"22 40 2 1",
" 	c None",
".	c #000000",
"    ..............    ",
"   ................   ",
"   ...............    ",
"     ............  .. ",
"                   ...",
"                  ....",
"                  ....",
"                  ....",
"                  ....",
"                  ....",
"                  ....",
"                  ....",
"                  ....",
"                  ....",
"                  ....",
"                  ....",
"                  ....",
"                   .. ",
"    ..............    ",
"   ................   ",
"   ...............    ",
" ..  ............     ",
"...                   ",
"....                  ",
"....                  ",
"....                  ",
"....                  ",
"....                  ",
"....                  ",
"....                  ",
"....                  ",
"....                  ",
"....                  ",
"....                  ",
"....                  ",
"...                   ",
" ..  ............     ",
"   ...............    ",
"   ................   ",
"    ..............    "};
