/* XPM */
static char * 4_xpm[] = {
"22 40 2 1",
" 	c None",
".	c #000000",
"                      ",
"                      ",
"                      ",
" ..                .. ",
"...                ...",
"....              ....",
"....              ....",
"....              ....",
"....              ....",
"....              ....",
"....              ....",
"....              ....",
"....              ....",
"....              ....",
"....              ....",
"....              ....",
"....              ....",
"...                .. ",
"    ..............    ",
"   ................   ",
"   ...............    ",
"     ............  .. ",
"                   ...",
"                  ....",
"                  ....",
"                  ....",
"                  ....",
"                  ....",
"                  ....",
"                  ....",
"                  ....",
"                  ....",
"                  ....",
"                  ....",
"                  ....",
"                   ...",
"                   .. ",
"                      ",
"                      ",
"                      "};
