/* XPM */
static char * pd2_xpm[] = {
"64 64 9 1",
" 	c None",
".	c #000000",
"+	c #573A23",
"@	c #402717",
"#	c #AC7B5D",
"$	c #2C65B5",
"%	c #C1AC8F",
"&	c #1D438A",
"*	c #9A5C42",
"                                                                ",
"                                                                ",
"                                                                ",
"                                                                ",
"                                                                ",
"                                                                ",
"                                                                ",
"                                                                ",
"                                                                ",
"                                                                ",
"                                                                ",
"                                                                ",
"                                                                ",
"                                                                ",
"                                                                ",
"                                                                ",
"                                                                ",
"                                                                ",
"                                                                ",
"                                                                ",
"                                                                ",
"                                                                ",
"                                                                ",
"                                                                ",
"                                                                ",
"                                                                ",
"                                                                ",
"                                                                ",
"                                  ........  ....                ",
"                                  ........  ....                ",
"                                  ..++++@@..++......            ",
"                                  ..++++@@..++......            ",
"                                  ....++++@@++@@++++..          ",
"                                  ....++++@@++@@++++..          ",
"                                ..@@++++++++++++++++++..        ",
"                                ..@@++++++++++++++++++..        ",
"                              ..@@++++++++++++++++++++++..      ",
"                              ..@@++++++++++++++++++++++..      ",
"                              ..@@++++@@++++++@@@@++++++..      ",
"                              ..@@++++@@++++++@@@@++++++..      ",
"                              ..@@@@@@@@++++++@@####@@++@@..    ",
"                              ..@@@@@@@@++++++@@####@@++@@..    ",
"                        ........@@++@@@@++++@@########@@@@..    ",
"                        ........@@++@@@@++++@@########@@@@..    ",
"                      ..$$++++++@@++++##@@++##..%%%%....@@..    ",
"                      ..$$++++++@@++++##@@++##..%%%%....@@..    ",
"                    ..@@&&@@++....@@++**##@@##%%%%%%##....      ",
"                    ..@@&&@@++....@@++**##@@##%%%%%%##....      ",
"                    ..@@&&&&..%%%%..@@****##########....        ",
"                    ..@@&&&&..%%%%..@@****##########....        ",
"                            ..%%%%..                            ",
"                            ..%%%%..                            ",
"                                                                ",
"                                                                ",
"                                                                ",
"                                                                ",
"                                                                ",
"                                                                ",
"                                                                ",
"                                                                ",
"                                                                ",
"                                                                ",
"                                                                ",
"                                                                "};
